<?xml version="1.0" encoding="UTF-8" standalone="no"?>
<!DOCTYPE svg PUBLIC "-//W3C//DTD SVG 1.1//EN" "http://www.w3.org/Graphics/SVG/1.1/DTD/svg11.dtd">
<svg width="100%" height="100%" viewBox="0 0 1072 679" version="1.1" xmlns="http://www.w3.org/2000/svg" xmlns:xlink="http://www.w3.org/1999/xlink" xml:space="preserve" xmlns:serif="http://www.serif.com/" style="fill-rule:evenodd;clip-rule:evenodd;stroke-linecap:round;stroke-linejoin:round;stroke-miterlimit:1.5;">
    <g transform="matrix(1,0,0,1,-368.913,-212.169)">
        <g>
            <g transform="matrix(-1.12187,1.3739e-16,-8.28672e-17,-0.676662,1980.26,662.638)">
                <path d="M1126,497L667,497C666.108,497 665.357,495.924 665.214,494.488C665.199,494.326 665.19,494.164 665.19,494C665.19,492.707 665.69,491.568 666.42,491.158L743.02,448.158C743.573,447.848 744.181,447.999 744.655,448.562C745.129,449.126 745.41,450.033 745.41,451L745.41,491L1126,491C1127,491 1127.81,492.344 1127.81,494C1127.81,495.656 1127,497 1126,497Z"/>
            </g>
            <g transform="matrix(1.12187,0,0,0.676662,-31.2599,-22.1448)">
                <path d="M1126,497L667,497C666.108,497 665.357,495.924 665.214,494.488C665.199,494.326 665.19,494.164 665.19,494C665.19,492.707 665.69,491.568 666.42,491.158L743.02,448.158C743.573,447.848 744.181,447.999 744.655,448.562C745.129,449.126 745.41,450.033 745.41,451L745.41,491L1126,491C1127,491 1127.81,492.344 1127.81,494C1127.81,495.656 1127,497 1126,497Z" style="fill:rgb(143,143,143);"/>
            </g>
        </g>
        <g transform="matrix(0.5113,-0.859402,0.859402,0.5113,-263.917,1250.87)">
            <g transform="matrix(-1.12187,1.3739e-16,-8.28672e-17,-0.676662,1980.26,662.638)">
                <path d="M1126,497L667,497C666.108,497 665.357,495.924 665.214,494.488C665.199,494.326 665.19,494.164 665.19,494C665.19,492.707 665.69,491.568 666.42,491.158L743.02,448.158C743.573,447.848 744.181,447.999 744.655,448.562C745.129,449.126 745.41,450.033 745.41,451L745.41,491L1126,491C1127,491 1127.81,492.344 1127.81,494C1127.81,495.656 1127,497 1126,497Z"/>
            </g>
            <g transform="matrix(1.12187,0,0,0.676662,-31.2599,-22.1448)">
                <path d="M1126,497L667,497C666.108,497 665.357,495.924 665.214,494.488C665.199,494.326 665.19,494.164 665.19,494C665.19,492.707 665.69,491.568 666.42,491.158L743.02,448.158C743.573,447.848 744.181,447.999 744.655,448.562C745.129,449.126 745.41,450.033 745.41,451L745.41,491L1126,491C1127,491 1127.81,492.344 1127.81,494C1127.81,495.656 1127,497 1126,497Z" style="fill:rgb(143,143,143);"/>
            </g>
        </g>
        <g transform="matrix(0.270462,0.962731,-0.962731,0.270462,1405.55,-411.186)">
            <g transform="matrix(-1.12187,1.3739e-16,-8.28672e-17,-0.676662,1980.26,662.638)">
                <path d="M1126,497L667,497C666.108,497 665.357,495.924 665.214,494.488C665.199,494.326 665.19,494.164 665.19,494C665.19,492.707 665.69,491.568 666.42,491.158L743.02,448.158C743.573,447.848 744.181,447.999 744.655,448.562C745.129,449.126 745.41,450.033 745.41,451L745.41,491L1126,491C1127,491 1127.81,492.344 1127.81,494C1127.81,495.656 1127,497 1126,497Z"/>
            </g>
            <g transform="matrix(1.12187,0,0,0.676662,-31.2599,-22.1448)">
                <path d="M1126,497L667,497C666.108,497 665.357,495.924 665.214,494.488C665.199,494.326 665.19,494.164 665.19,494C665.19,492.707 665.69,491.568 666.42,491.158L743.02,448.158C743.573,447.848 744.181,447.999 744.655,448.562C745.129,449.126 745.41,450.033 745.41,451L745.41,491L1126,491C1127,491 1127.81,492.344 1127.81,494C1127.81,495.656 1127,497 1126,497Z" style="fill:rgb(143,143,143);"/>
            </g>
        </g>
        <g transform="matrix(1,0,0,1,-114.909,-210.125)">
            <circle cx="789.5" cy="530.5" r="26.5" style="fill:rgb(0,18,255);"/>
        </g>
        <g transform="matrix(1,0,0,1,484.909,-210.125)">
            <circle cx="789.5" cy="530.5" r="26.5" style="fill:rgb(0,18,255);"/>
        </g>
        <path d="M1368.71,889.002L1234.46,370.877L701.091,370.877L415.573,849.124" style="fill:url(#_Linear1);stroke:url(#_Linear2);stroke-width:4px;"/>
        <g transform="matrix(1,0,0,1,106.558,79.5746)">
            <g transform="matrix(28,0,0,28,932.174,172.835)">
            </g>
            <text x="797.774px" y="172.835px" style="font-family:'JetBrainsMono-Regular', 'JetBrains Mono', monospace;font-size:28px;fill:rgb(143,143,143);">opposite</text>
        </g>
        <g transform="matrix(1,0,0,1,433.558,62.5746)">
            <g transform="matrix(28,0,0,28,990.974,172.835)">
            </g>
            <text x="738.974px" y="172.835px" style="font-family:'JetBrainsMono-Regular', 'JetBrains Mono', monospace;font-size:28px;fill:rgb(0,18,255);">dst_vert / vert</text>
        </g>
        <g transform="matrix(1,0,0,1,-192.442,61.5746)">
            <text x="797.774px" y="172.835px" style="font-family:'JetBrainsMono-Regular', 'JetBrains Mono', monospace;font-size:28px;fill:rgb(0,18,255);">src_vert</text>
        </g>
        <g transform="matrix(1,0,0,1,173.558,368.575)">
            <g transform="matrix(28,0,0,28,864.974,172.835)">
            </g>
            <text x="797.774px" y="172.835px" style="font-family:'JetBrainsMono-Regular', 'JetBrains Mono', monospace;font-size:28px;fill:rgb(255,0,217);">face</text>
        </g>
        <g transform="matrix(1,0,0,1,360.659,287.445)">
            <g transform="matrix(28,0,0,28,864.974,172.835)">
            </g>
            <text x="797.774px" y="172.835px" style="font-family:'JetBrainsMono-Regular', 'JetBrains Mono', monospace;font-size:28px;">next</text>
        </g>
        <g transform="matrix(1,0,0,1,-98.3408,288.445)">
            <g transform="matrix(28,0,0,28,864.974,172.835)">
            </g>
            <text x="797.774px" y="172.835px" style="font-family:'JetBrainsMono-Regular', 'JetBrains Mono', monospace;font-size:28px;">prev</text>
        </g>
        <g transform="matrix(1,-0,-0,1,368.913,212.169)">
            <path d="M639.214,79.879L638.087,96.831L625.201,85.758L639.214,79.879Z" style="fill:rgb(0,152,7);"/>
            <path d="M563.087,114.831C553.49,84.551 571.404,60.104 593.087,59.831C612.15,59.591 624.143,66.781 633.383,85.621" style="fill:none;stroke:rgb(0,152,7);stroke-width:2px;stroke-dasharray:10,10,0,0,0,0;"/>
        </g>
        <g transform="matrix(1,0,0,1,235,-1)">
            <g transform="matrix(1,-0,-0,1,133.913,213.169)">
                <path d="M886.341,57.858L887.087,74.831L873.061,65.243L886.341,57.858Z" style="fill:rgb(0,152,7);"/>
                <path d="M798.087,113.831C788.49,83.551 799.485,60.495 817.087,47.831C832.951,36.417 865.934,44.434 881.178,64.207" style="fill:none;stroke:rgb(0,152,7);stroke-width:2px;stroke-dasharray:10,10,0,0,0,0;"/>
            </g>
        </g>
        <g transform="matrix(-1,0,0,1,1720.44,-1)">
            <g transform="matrix(-1,0,0,1,1351.53,213.169)">
                <path d="M344.557,65.243L330.531,74.831L331.276,57.858L344.557,65.243Z" style="fill:rgb(0,152,7);"/>
                <path d="M419.531,113.831C429.127,83.551 418.133,60.495 400.531,47.831C384.667,36.417 351.684,44.434 336.439,64.207" style="fill:none;stroke:rgb(0,152,7);stroke-width:2px;stroke-dasharray:10,10,0,0,0,0;"/>
            </g>
        </g>
        <g transform="matrix(1.06062,0.231477,0.231477,1.88382,-130.415,-497.948)">
            <g transform="matrix(0.968822,-0.119045,-0.119045,0.545464,399.224,327.901)">
                <path d="M593.754,345.206L590.254,361.831L579.054,349.056L593.754,345.206Z" style="fill:rgb(0,152,7);"/>
                <path d="M526.087,116.831C526.087,116.831 574.379,301.217 587.174,350.071" style="fill:none;stroke:rgb(0,152,7);stroke-width:2px;stroke-dasharray:10,10,0,0,0,0;"/>
            </g>
        </g>
        <g transform="matrix(1,-0,-0,1,368.913,212.169)">
            <path d="M918.901,219.669L935.087,224.831L921.246,234.683L918.901,219.669Z" style="fill:rgb(0,152,7);"/>
            <path d="M745.087,118.831C762.409,182.57 855.705,233.401 923.076,226.707" style="fill:none;stroke:rgb(0,152,7);stroke-width:2px;stroke-dasharray:10,10,0,0,0,0;"/>
        </g>
        <g transform="matrix(1,-0,-0,1,368.913,212.169)">
            <path d="M281.881,225.749L268.087,215.831L284.298,210.746L281.881,225.749Z" style="fill:rgb(0,152,7);"/>
            <path d="M449.087,115.831C420.485,200.741 361.071,229.059 280.089,217.764" style="fill:none;stroke:rgb(0,152,7);stroke-width:2px;stroke-dasharray:10,10,0,0,0,0;"/>
        </g>
    </g>
    <defs>
        <linearGradient id="_Linear1" x1="0" y1="0" x2="1" y2="0" gradientUnits="userSpaceOnUse" gradientTransform="matrix(8,-141,141,8,933,856)"><stop offset="0" style="stop-color:rgb(255,239,253);stop-opacity:0"/><stop offset="1" style="stop-color:rgb(255,239,253);stop-opacity:1"/></linearGradient>
        <linearGradient id="_Linear2" x1="0" y1="0" x2="1" y2="0" gradientUnits="userSpaceOnUse" gradientTransform="matrix(4,-114,61.9704,2.1744,978,860)"><stop offset="0" style="stop-color:rgb(255,0,217);stop-opacity:0"/><stop offset="1" style="stop-color:rgb(255,0,217);stop-opacity:1"/></linearGradient>
    </defs>
</svg>
